<svg width="580" height="400" xmlns="http://www.w3.org/2000/svg">
 <!-- Created with SVG Editor - http://github.com/mzalive/SVG Editor/ -->

 <g>
  <title>background</title>
  <rect fill="#fff" id="canvas_background" height="402" width="582" y="-1" x="-1"/>
  <g display="none" overflow="visible" y="0" x="0" height="100%" width="100%" id="canvasGrid">
   <rect fill="url(#gridpattern)" stroke-width="0" y="0" x="0" height="100%" width="100%"/>
  </g>
 </g>
 <g>
  <title>Layer 1</title>
  <g fill="#ffffff" stroke="null" id="svg_10">
   <path fill="#ffffff" stroke="null" id="svg_5" d="m140.459732,21.281045l0,0a19.805373,19.805373 0 0 1 19.805373,19.805373l0,158.442988a0,0 0 0 1 0,0l-39.610747,0a0,0 0 0 1 0,0l0,-158.442988a19.805373,19.805373 0 0 1 19.805373,-19.805373z"/>
   <path fill="#ffffff" stroke="null" id="svg_6" d="m309.956297,206.540509a14.870667,14.870667 0 0 1 20.791681,-2.97853c13.770874,10.3186 30.152889,5.870115 47.376236,5.870115l0,-9.902687l-54.464777,-22.899963c-16.652754,-22.203606 14.936222,-35.089576 -10.675096,-44.84709c-65.766119,-25.056768 -149.566616,-9.076209 -192.329982,47.941679l0,168.345675a29.70806,29.70806 0 0 0 59.41612,0l0,-75.209321a180.980117,180.980117 0 0 1 138.637614,0l0,75.209321a29.70806,29.70806 0 0 0 59.41612,0l0,-99.026867a107.890564,107.890564 0 0 1 -65.189387,-21.710452a14.847098,14.847098 0 0 1 -2.97853,-20.791879z"/>
   <path fill="#ffffff" stroke="null" id="svg_7" d="m358.318841,80.697166l-59.41612,39.610747l0,-75.119603a9.902687,9.902687 0 0 1 16.904877,-7.00219l42.511244,42.511046z"/>
   <path fill="#ffffff" stroke="null" id="svg_8" d="m397.929588,80.697166l59.41612,39.610747l0,-75.119603a9.902687,9.902687 0 0 0 -16.904877,-7.00219l-42.511244,42.511046z"/>
   <path fill="#ffffff" stroke="null" id="svg_9" d="m437.540335,80.697166l-138.637614,0l0,59.41612a79.221494,79.221494 0 0 0 158.442988,0l0,-59.41612l-19.805373,0zm-74.270151,69.318807a14.85403,14.85403 0 1 1 -4.951343,-14.85403a14.85403,14.85403 0 0 1 -14.85403,14.85403l19.805373,0zm74.270151,0a14.85403,14.85403 0 1 1 14.85403,-14.85403a14.85403,14.85403 0 0 1 -34.659404,14.85403l19.805373,0z"/>
  </g>
 </g>
</svg>